<svg xmlns="http://www.w3.org/2000/svg" width="114.268" height="37.185" viewBox="0 0 114.268 37.185"><g transform="translate(71 -1714.148)"><g transform="translate(-71 1714.148)"><g transform="translate(1.849 1.778)"><g transform="translate(108.447 31.526)"><path d="M947.719,650.46h-2.1v-.323H947.4v-1.778h.323Z" transform="translate(-945.617 -648.358)" fill="#186aa5"/></g><g transform="translate(6.243 33.305)"><path d="M677.663,661.779h-8.915v-.323h8.915Zm-17.83,0h-8.915v-.323h8.915Zm-17.83,0h-8.915v-.323H642Zm-17.83,0h-8.915v-.323h8.915Zm-17.829,0H597.43v-.323h8.915Zm-17.83,0H579.6v-.323h8.915Z" transform="translate(-579.6 -661.456)" fill="#186aa5"/></g><g transform="translate(0 31.526)"><path d="M535.721,650.46h-2.1v-2.1h.323v1.778h1.778Z" transform="translate(-533.619 -648.358)" fill="#186aa5"/></g><g transform="translate(0 6.305)"><path d="M533.942,483.62h-.323v-4.2h.323Zm0-8.407h-.323v-4.2h.323Zm0-8.407h-.323v-4.2h.323Z" transform="translate(-533.619 -462.602)" fill="#186aa5"/></g><g transform="translate(0 0)"><path d="M533.943,418.264h-.323v-2.1h2.1v.323h-1.778Z" transform="translate(-533.619 -416.163)" fill="#186aa5"/></g><g transform="translate(6.243 0)"><path d="M677.663,416.486h-8.915v-.323h8.915Zm-17.83,0h-8.915v-.323h8.915Zm-17.829,0h-8.915v-.323H642Zm-17.83,0h-8.915v-.323h8.915Zm-17.83,0h-8.915v-.323h8.915Zm-17.83,0H579.6v-.323h8.915Z" transform="translate(-579.6 -416.163)" fill="#186aa5"/></g><g transform="translate(108.447 0)"><path d="M947.719,418.264H947.4v-1.778h-1.778v-.323h2.1Z" transform="translate(-945.617 -416.163)" fill="#186aa5"/></g><g transform="translate(110.226 6.305)"><path d="M959.039,483.62h-.323v-4.2h.323Zm0-8.407h-.323v-4.2h.323Zm0-8.407h-.323v-4.2h.323Z" transform="translate(-958.715 -462.602)" fill="#186aa5"/></g></g><rect width="3.88" height="3.88" transform="translate(0 0)" fill="#186aa5"/><rect width="3.88" height="3.88" transform="translate(0 33.305)" fill="#186aa5"/><rect width="3.88" height="3.88" transform="translate(110.388 33.305)" fill="#186aa5"/><rect width="3.88" height="3.88" transform="translate(110.388 0)" fill="#186aa5"/></g><text transform="translate(-15 1736.761)" fill="#186aa5" font-size="16" font-family="Montserrat-Bold, Montserrat" font-weight="700"><tspan x="-39.8" y="0">logo here</tspan></text></g></svg>